# xmcd
#
# Track frame offsets:
#   150
#   19269
#   33630
#   50542
#   63925
#   78330
#   94940
#   110597
#   128510
#   145020
#   161659
#   176945
#   195620
#   210567
#
# Disc length: 2984 seconds
#
# Revision: 0
# Processed by: cddbd v1.5.1PL0 Copyright (c) Steve Scherf et al.
# Submitted via: uFREEDB ActiveX Control 1.5
#
DISCID=c20ba60e
DTITLE=Chico Rezendi - É Bom Demais
DYEAR=1900
DGENRE=Country
TTITLE0=É Bom Demais
TTITLE1=Tem Que Ter Mulher
TTITLE2=Mexendo Devagar
TTITLE3=Zoião
TTITLE4=Tortura
TTITLE5=Pra Nunca Mais Sofrer
TTITLE6=Amor Sem Fim
TTITLE7=Me Dá Uma Chance
TTITLE8=Dói Saber
TTITLE9=Marcas
TTITLE10=Zé Vaidoso
TTITLE11=Quando Cai A Noite
TTITLE12=Te Quero Comigo
TTITLE13=Não Quero Saber
EXTD=
EXTT0=
EXTT1=
EXTT2=
EXTT3=
EXTT4=
EXTT5=
EXTT6=
EXTT7=
EXTT8=
EXTT9=
EXTT10=
EXTT11=
EXTT12=
EXTT13=
PLAYORDER=
